<svg id="Layer_1" data-name="Layer 1" xmlns="http://www.w3.org/2000/svg" viewBox="0 0 257.86 56.26"><defs><style>.cls-1{fill:#333;}.cls-2{fill:#424242;}.cls-3{fill:#009ee2;}</style></defs><title>ieni-logo-website-3</title><path class="cls-1" d="M2.7,48.86H6.49V32.46h-4V27.59H13V48.86h3.74v4.87H2.7ZM6.44,17.35H13v5.79H6.44Z" transform="translate(-2 -12.18)"/><path class="cls-1" d="M26.94,34.36v-.1A8.25,8.25,0,0,1,22,26.31c0-6.45,5.43-9.58,11.94-9.58a22.39,22.39,0,0,1,4.82.61l-1.54,5.23a12.32,12.32,0,0,0-2.46-.31c-3.38,0-6.1,1.74-6.1,4.82,0,2.31,1.18,5.07,5.58,5.07h6.82V27.23h6.46v4.92h4.72v5.33H47.53V42c0,7.43-5.12,12.35-13.53,12.35-8.2,0-13.53-4.77-13.53-10.86A9.52,9.52,0,0,1,26.94,34.36Zm7.12,14.09c4.25,0,7-2.26,7-6.82V37.48H33.85c-4,0-6.66,1.9-6.66,5.43C27.19,46.14,29.86,48.45,34.06,48.45Z" transform="translate(-2 -12.18)"/><path class="cls-1" d="M55.68,48.86h3.79V32.46h-4V27.59H66V48.86h3.74v4.87h-14Zm3.74-31.51H66v5.79H59.42Z" transform="translate(-2 -12.18)"/><path class="cls-1" d="M87.39,28.66H84.24L80.5,17.34H84l1.6,6.57a12.23,12.23,0,0,1,.27,1.76h0a10.67,10.67,0,0,1,.29-1.76L88,17.34h3.17Z" transform="translate(-2 -12.18)"/><path class="cls-1" d="M100.58,28.89c-3.23,0-5-1.22-5-3.59,0-2.79,2.86-3.7,6.34-4v-.5c0-1.09-.69-1.57-2-1.57a7.36,7.36,0,0,0-3,.71L96.25,18a11,11,0,0,1,4.22-.86c2.77,0,4.54,1.18,4.54,4.14v6.8A10,10,0,0,1,100.58,28.89Zm1.36-6.09c-2.18.23-3.28.9-3.28,2.37,0,1.26.73,1.89,2.08,1.89a2.78,2.78,0,0,0,1.2-.21Z" transform="translate(-2 -12.18)"/><path class="cls-1" d="M117.94,28.66l-3.34-5.52h0v5.52h-3.25V12.18h3.25V22.53h0l3.25-5.19h3.46l-3.82,5.31,4.16,6Z" transform="translate(-2 -12.18)"/><path class="cls-1" d="M132.71,28.66h-3.15l-3.74-11.32h3.53l1.6,6.57a12.23,12.23,0,0,1,.27,1.76h0a10.67,10.67,0,0,1,.29-1.76l1.72-6.57h3.17Z" transform="translate(-2 -12.18)"/><path class="cls-1" d="M151.08,23.16l-6.8,1a2.66,2.66,0,0,0,2.83,2.52A6.82,6.82,0,0,0,150,26l.76,2.06a9.73,9.73,0,0,1-4.14.84c-3.63,0-5.52-2.48-5.52-5.92s1.91-5.86,5.19-5.86,4.85,2.06,4.85,5.56A4.33,4.33,0,0,1,151.08,23.16Zm-5-4.14c-1.34,0-2.08,1.3-2.08,3.21v.29l3.95-.61C148,20.07,147.41,19,146.13,19Z" transform="translate(-2 -12.18)"/><path class="cls-1" d="M162.42,19.47a2.63,2.63,0,0,0-1.2-.27,2.46,2.46,0,0,0-1,.17v9.3H157V18a10.81,10.81,0,0,1,4.6-.84,13.49,13.49,0,0,1,1.45.08Z" transform="translate(-2 -12.18)"/><path class="cls-1" d="M177.54,23.16l-6.8,1a2.67,2.67,0,0,0,2.83,2.52,6.82,6.82,0,0,0,2.86-.65l.76,2.06a9.73,9.73,0,0,1-4.14.84c-3.63,0-5.52-2.48-5.52-5.92s1.91-5.86,5.19-5.86,4.85,2.06,4.85,5.56A4.14,4.14,0,0,1,177.54,23.16Zm-5-4.14c-1.34,0-2.08,1.3-2.08,3.21v.29l3.95-.61C174.43,20.07,173.87,19,172.58,19Z" transform="translate(-2 -12.18)"/><path class="cls-1" d="M189.83,28.66V21c0-1.24-.52-1.85-1.83-1.85a3.59,3.59,0,0,0-1.3.23v9.28h-3.28V18a11.72,11.72,0,0,1,4.58-.82c3.57,0,5.1,1.45,5.1,3.88v7.64Z" transform="translate(-2 -12.18)"/><path class="cls-1" d="M201.06,15.64a1.65,1.65,0,0,1-1.74-1.55,1.76,1.76,0,0,1,3.48,0A1.65,1.65,0,0,1,201.06,15.64Zm-1.64,13V17.34h3.28V28.66Z" transform="translate(-2 -12.18)"/><path class="cls-1" d="M213.49,33.39a9.67,9.67,0,0,1-4.22-.86l.84-2.12a6.31,6.31,0,0,0,2.79.67,2,2,0,0,0,2.35-2.25v-.5a4.56,4.56,0,0,1-2,.36c-2.79,0-4.66-2.12-4.66-5.5,0-3.84,2.12-6.07,5.92-6.07a9.15,9.15,0,0,1,4,.82V28.51C218.51,31.73,216.58,33.39,213.49,33.39Zm1.76-14.17a2.5,2.5,0,0,0-1-.19c-1.62,0-2.37,1.41-2.37,4s.71,3.78,2.31,3.78a2.33,2.33,0,0,0,1.09-.25Z" transform="translate(-2 -12.18)"/><path class="cls-1" d="M226.47,15.64a1.65,1.65,0,0,1-1.74-1.55,1.76,1.76,0,0,1,3.48,0A1.65,1.65,0,0,1,226.47,15.64Zm-1.64,13V17.34h3.28V28.66Z" transform="translate(-2 -12.18)"/><path class="cls-1" d="M240.83,28.66V21c0-1.24-.53-1.85-1.83-1.85a3.6,3.6,0,0,0-1.3.23v9.28h-3.28V18a11.73,11.73,0,0,1,4.58-.82c3.57,0,5.1,1.45,5.1,3.88v7.64Z" transform="translate(-2 -12.18)"/><path class="cls-1" d="M254.84,33.39a9.66,9.66,0,0,1-4.22-.86l.84-2.12a6.31,6.31,0,0,0,2.79.67,2,2,0,0,0,2.35-2.25v-.5a4.56,4.56,0,0,1-2,.36c-2.79,0-4.66-2.12-4.66-5.5,0-3.84,2.12-6.07,5.92-6.07a9.15,9.15,0,0,1,4,.82V28.51C259.86,31.73,257.93,33.39,254.84,33.39Zm1.76-14.17a2.5,2.5,0,0,0-1-.19c-1.62,0-2.37,1.41-2.37,4s.71,3.78,2.31,3.78a2.33,2.33,0,0,0,1.09-.25Z" transform="translate(-2 -12.18)"/><path class="cls-2" d="M82.46,35.71a.84.84,0,1,1,.9-.83A.87.87,0,0,1,82.46,35.71Zm-.75,10.91V37.46h1.5v9.16Z" transform="translate(-2 -12.18)"/><path class="cls-2" d="M92.17,46.62V40.3c0-1.38-.56-2.06-2.06-2.06a4,4,0,0,0-1.61.31v8.07H87V37.93a7.69,7.69,0,0,1,3.11-.65c2.46,0,3.55,1.07,3.55,3v6.32Z" transform="translate(-2 -12.18)"/><path class="cls-2" d="M99.27,38.39v8.23h-1.5V38.39H96.72v-.93h1.05V36.17a2.61,2.61,0,0,1,2.79-2.91l.31,0v1h-.1c-.8,0-1.5.41-1.5,1.87v1.34h1.6v.93Z" transform="translate(-2 -12.18)"/><path class="cls-2" d="M106.91,46.79c-2.48,0-3.62-2-3.62-4.76s1.14-4.74,3.62-4.74,3.62,2,3.62,4.74S109.39,46.79,106.91,46.79Zm0-8.55c-1.6,0-2.12,1.72-2.12,3.76s.53,3.79,2.13,3.79S109,44,109,42,108.51,38.24,106.91,38.24Z" transform="translate(-2 -12.18)"/><path class="cls-2" d="M117.45,38.46a2.71,2.71,0,0,0-.94-.15,2.56,2.56,0,0,0-1.16.24v8.07h-1.5V37.93a7,7,0,0,1,3.13-.65,6.16,6.16,0,0,1,.8.05Z" transform="translate(-2 -12.18)"/><path class="cls-2" d="M130.89,46.62V40.23c0-1.21-.54-2-1.89-2a2.27,2.27,0,0,0-1.78.87v7.51h-1.48V40c0-1.05-.58-1.75-1.94-1.75a4.09,4.09,0,0,0-1.72.31v8.07h-1.48V37.93a7.61,7.61,0,0,1,3.14-.65,3.25,3.25,0,0,1,2.75,1.07,3.54,3.54,0,0,1,2.63-1.07c2.24,0,3.23,1.21,3.23,3v6.37Z" transform="translate(-2 -12.18)"/><path class="cls-2" d="M139.09,46.79c-2.19,0-3.48-1-3.48-2.77,0-2.21,2.18-3.06,5.13-3.35v-.56c0-1.26-.68-1.82-2-1.82a5.1,5.1,0,0,0-2.29.58l-.36-.92a6.41,6.41,0,0,1,2.79-.66c2,0,3.21.93,3.21,3v5.88A6.69,6.69,0,0,1,139.09,46.79Zm1.65-5.34c-2.33.27-3.71.92-3.71,2.53,0,1.24.77,1.94,2.19,1.94a3.51,3.51,0,0,0,1.51-.31Z" transform="translate(-2 -12.18)"/><path class="cls-2" d="M148.4,46.71a2.07,2.07,0,0,1-2.19-2.31v-6h-1.05v-.93h1.05V35.35l1.5-.46v2.57h1.6v.93h-1.6v6c0,.8.39,1.27,1.14,1.27a1.31,1.31,0,0,0,.46-.07v1A2.31,2.31,0,0,1,148.4,46.71Z" transform="translate(-2 -12.18)"/><path class="cls-2" d="M153.28,35.71a.84.84,0,1,1,.9-.83A.87.87,0,0,1,153.28,35.71Zm-.75,10.91V37.46H154v9.16Z" transform="translate(-2 -12.18)"/><path class="cls-2" d="M161,46.79c-2.21,0-3.55-2-3.55-4.76s1.36-4.74,3.55-4.74a3.4,3.4,0,0,1,2.06.59l-.36.88a2.48,2.48,0,0,0-1.44-.46c-1.46,0-2.28,1.58-2.28,3.69s.83,3.71,2.28,3.71a2.41,2.41,0,0,0,1.43-.44l.37.94A3.4,3.4,0,0,1,161,46.79Z" transform="translate(-2 -12.18)"/><path class="cls-2" d="M169.18,46.79c-2.19,0-3.48-1-3.48-2.77,0-2.21,2.18-3.06,5.13-3.35v-.56c0-1.26-.68-1.82-2-1.82a5.1,5.1,0,0,0-2.29.58l-.36-.92a6.41,6.41,0,0,1,2.79-.66c2,0,3.21.93,3.21,3v5.88A6.69,6.69,0,0,1,169.18,46.79Zm1.65-5.34c-2.33.27-3.71.92-3.71,2.53,0,1.24.76,1.94,2.19,1.94a3.51,3.51,0,0,0,1.51-.31Z" transform="translate(-2 -12.18)"/><path class="cls-2" d="M188.88,40.16v6a6.93,6.93,0,0,1-3.13.66c-2.65,0-4.27-1.14-4.27-3.23,0-1.8,1.39-2.8,3-3.35v0a2.66,2.66,0,0,1-2.36-2.63c0-1.82,1.58-2.79,3.35-2.79a4.87,4.87,0,0,1,2.4.61l-.46.9a3.63,3.63,0,0,0-1.77-.46,1.82,1.82,0,0,0-2,1.8,2,2,0,0,0,2.24,2,11.57,11.57,0,0,0,2.41-.29l2.4-.49.22,1Zm-1.48.17c-3,.48-4.32,1.39-4.32,3.2,0,1.38.9,2.28,2.72,2.28a4.4,4.4,0,0,0,1.6-.29Z" transform="translate(-2 -12.18)"/><path class="cls-2" d="M85.27,64.79c-2.63,0-4-1.84-4-4.57s1.36-4.86,4-4.86a5.21,5.21,0,0,1,1.41.19V51.28h1.48V64.14A5.91,5.91,0,0,1,85.27,64.79Zm1.41-8.38a4.3,4.3,0,0,0-1.16-.17c-2.07,0-2.77,1.82-2.77,3.82,0,2.16.73,3.74,2.6,3.74a2.69,2.69,0,0,0,1.33-.26Z" transform="translate(-2 -12.18)"/><path class="cls-2" d="M92.7,53.71a.84.84,0,1,1,.9-.83A.87.87,0,0,1,92.7,53.71Zm-.75,10.91V55.46h1.5v9.16Z" transform="translate(-2 -12.18)"/><path class="cls-2" d="M103.78,64.76c0,2.31-1.29,3.69-3.54,3.69a6.12,6.12,0,0,1-2.82-.65l.44-1a4.72,4.72,0,0,0,2.12.53,2.12,2.12,0,0,0,2.31-2.41v-.61a3.65,3.65,0,0,1-1.82.41c-2.21,0-3.6-1.75-3.6-4.54,0-2.94,1.46-4.9,4.2-4.9a5.62,5.62,0,0,1,2.7.63Zm-1.48-8.31a3,3,0,0,0-1.31-.25c-1.84,0-2.62,1.55-2.62,3.94s.75,3.65,2.5,3.65a2.84,2.84,0,0,0,1.43-.37Z" transform="translate(-2 -12.18)"/><path class="cls-2" d="M108.32,53.71a.84.84,0,1,1,.9-.83A.87.87,0,0,1,108.32,53.71Zm-.75,10.91V55.46h1.5v9.16Z" transform="translate(-2 -12.18)"/><path class="cls-2" d="M115.56,64.71a2.07,2.07,0,0,1-2.19-2.31v-6h-1.05v-.93h1.05V53.35l1.5-.46v2.57h1.6v.93h-1.6v6c0,.8.39,1.27,1.14,1.27a1.31,1.31,0,0,0,.46-.07v1A2.31,2.31,0,0,1,115.56,64.71Z" transform="translate(-2 -12.18)"/><path class="cls-2" d="M122.7,64.79c-2.19,0-3.48-1-3.48-2.77,0-2.21,2.18-3.06,5.13-3.35v-.56c0-1.26-.68-1.82-2-1.82a5.1,5.1,0,0,0-2.29.58l-.36-.92a6.41,6.41,0,0,1,2.79-.66c2,0,3.21.93,3.21,3v5.88A6.69,6.69,0,0,1,122.7,64.79Zm1.65-5.34c-2.33.27-3.71.92-3.71,2.53,0,1.24.77,1.94,2.19,1.94a3.51,3.51,0,0,0,1.51-.31Z" transform="translate(-2 -12.18)"/><path class="cls-2" d="M129.53,64.62V51.28H131V64.62Z" transform="translate(-2 -12.18)"/><path class="cls-2" d="M135.91,60.63c.14,1.89,1.09,3.09,2.82,3.09a4.72,4.72,0,0,0,2.23-.54l.39,1a5.9,5.9,0,0,1-2.77.65c-2.62,0-4.11-1.8-4.11-4.78s1.38-4.73,3.71-4.73,3.5,1.43,3.5,4.32v.17Zm2.23-4.4c-1.51,0-2.29,1.43-2.29,3.5v.08l4.39-.68C140.19,57.28,139.56,56.22,138.14,56.22Z" transform="translate(-2 -12.18)"/><path class="cls-2" d="M157.51,64.76c0,2.31-1.29,3.69-3.54,3.69a6.12,6.12,0,0,1-2.82-.65l.44-1a4.72,4.72,0,0,0,2.13.53A2.12,2.12,0,0,0,156,64.93v-.61a3.65,3.65,0,0,1-1.82.41c-2.21,0-3.6-1.75-3.6-4.54,0-2.94,1.46-4.9,4.2-4.9a5.61,5.61,0,0,1,2.7.63ZM156,56.44a3,3,0,0,0-1.31-.25c-1.84,0-2.62,1.55-2.62,3.94s.75,3.65,2.5,3.65a2.84,2.84,0,0,0,1.43-.37Z" transform="translate(-2 -12.18)"/><path class="cls-2" d="M162.29,60.63c.14,1.89,1.09,3.09,2.82,3.09a4.72,4.72,0,0,0,2.23-.54l.39,1a5.9,5.9,0,0,1-2.77.65c-2.62,0-4.11-1.8-4.11-4.78s1.38-4.73,3.71-4.73,3.5,1.43,3.5,4.32v.17Zm2.23-4.4c-1.51,0-2.29,1.43-2.29,3.5v.08l4.39-.68C166.58,57.28,165.95,56.22,164.52,56.22Z" transform="translate(-2 -12.18)"/><path class="cls-2" d="M171.49,64.62V51.28H173V64.62Z" transform="translate(-2 -12.18)"/><path class="cls-2" d="M177.86,60.63c.14,1.89,1.09,3.09,2.82,3.09a4.72,4.72,0,0,0,2.23-.54l.39,1a5.9,5.9,0,0,1-2.77.65c-2.62,0-4.11-1.8-4.11-4.78s1.38-4.73,3.71-4.73,3.5,1.43,3.5,4.32v.17Zm2.23-4.4c-1.51,0-2.29,1.43-2.29,3.5v.08l4.39-.68C182.15,57.28,181.52,56.22,180.09,56.22Z" transform="translate(-2 -12.18)"/><path class="cls-2" d="M189.58,64.71a2.07,2.07,0,0,1-2.19-2.31v-6h-1.05v-.93h1.05V53.35l1.5-.46v2.57h1.6v.93h-1.6v6c0,.8.39,1.27,1.14,1.27a1.31,1.31,0,0,0,.46-.07v1A2.31,2.31,0,0,1,189.58,64.71Z" transform="translate(-2 -12.18)"/><path class="cls-2" d="M196.31,64.71a2.07,2.07,0,0,1-2.19-2.31v-6h-1.05v-.93h1.05V53.35l1.5-.46v2.57h1.6v.93h-1.6v6c0,.8.39,1.27,1.14,1.27a1.31,1.31,0,0,0,.46-.07v1A2.31,2.31,0,0,1,196.31,64.71Z" transform="translate(-2 -12.18)"/><path class="cls-2" d="M201.31,60.63c.14,1.89,1.09,3.09,2.82,3.09a4.72,4.72,0,0,0,2.23-.54l.39,1a5.9,5.9,0,0,1-2.77.65c-2.62,0-4.11-1.8-4.11-4.78s1.38-4.73,3.71-4.73,3.5,1.43,3.5,4.32v.17Zm2.23-4.4c-1.51,0-2.29,1.43-2.29,3.5v.08l4.39-.68C205.59,57.28,205,56.22,203.53,56.22Z" transform="translate(-2 -12.18)"/><path class="cls-2" d="M214,56.46a2.71,2.71,0,0,0-.94-.15,2.56,2.56,0,0,0-1.16.24v8.07h-1.5V55.93a7,7,0,0,1,3.13-.65,6.16,6.16,0,0,1,.8.05Z" transform="translate(-2 -12.18)"/><path class="cls-2" d="M220.57,64.79c-2.63,0-4-1.84-4-4.57s1.36-4.86,4-4.86a5.21,5.21,0,0,1,1.41.19V51.28h1.48V64.14A5.91,5.91,0,0,1,220.57,64.79ZM222,56.41a4.3,4.3,0,0,0-1.16-.17c-2.07,0-2.77,1.82-2.77,3.82,0,2.16.73,3.74,2.6,3.74a2.69,2.69,0,0,0,1.33-.26Z" transform="translate(-2 -12.18)"/><path class="cls-2" d="M232.45,64.62V58.16a1.65,1.65,0,0,0-1.87-1.84,3.61,3.61,0,0,0-1.8.49v7.8h-1.5V51.28h1.5v4.66a4.08,4.08,0,0,1,2.11-.56c2.31,0,3.06,1.41,3.06,2.74v6.51Z" transform="translate(-2 -12.18)"/><path class="cls-2" d="M238.72,60.63c.14,1.89,1.09,3.09,2.82,3.09a4.72,4.72,0,0,0,2.23-.54l.39,1a5.9,5.9,0,0,1-2.77.65c-2.62,0-4.11-1.8-4.11-4.78s1.38-4.73,3.71-4.73,3.5,1.43,3.5,4.32v.17Zm2.23-4.4c-1.51,0-2.29,1.43-2.29,3.5v.08l4.39-.68C243,57.28,242.38,56.22,240.95,56.22Z" transform="translate(-2 -12.18)"/><path class="cls-2" d="M248.67,53.71a.84.84,0,1,1,.9-.83A.87.87,0,0,1,248.67,53.71Zm-.75,10.91V55.46h1.5v9.16Z" transform="translate(-2 -12.18)"/><path class="cls-2" d="M256.86,64.79c-2.63,0-4-1.84-4-4.57s1.36-4.86,4-4.86a5.21,5.21,0,0,1,1.41.19V51.28h1.48V64.14A5.91,5.91,0,0,1,256.86,64.79Zm1.41-8.38a4.3,4.3,0,0,0-1.16-.17c-2.07,0-2.77,1.82-2.77,3.82,0,2.16.73,3.74,2.6,3.74a2.69,2.69,0,0,0,1.33-.26Z" transform="translate(-2 -12.18)"/><rect class="cls-3" y="47.82" width="68" height="4"/></svg>