<?xml version="1.0" encoding="utf-8"?>
<!-- Generator: Adobe Illustrator 16.0.0, SVG Export Plug-In . SVG Version: 6.00 Build 0)  -->
<!DOCTYPE svg PUBLIC "-//W3C//DTD SVG 1.1//EN" "http://www.w3.org/Graphics/SVG/1.1/DTD/svg11.dtd">
<svg version="1.1" id="Layer_1" xmlns="http://www.w3.org/2000/svg" xmlns:xlink="http://www.w3.org/1999/xlink" x="0px" y="0px"
	 width="500px" height="500px" viewBox="0 0 500 500" enable-background="new 0 0 500 500" xml:space="preserve">
<rect x="0.5" y="0.5" fill="#1A1A1A" stroke="#000000" stroke-miterlimit="10" width="500" height="500"/>
<g>
	<path fill="#F1F1F2" d="M71.353,287.362h20.312v-87.851H69.979v-26.072h56.536v113.923h20.041v26.061H71.353V287.362z
		 M91.376,118.538h35.139v31.009H91.376V118.538z"/>
	<path fill="#F1F1F2" d="M201.18,209.674v-0.551c0,0-26.345-9.611-26.345-42.56c0-34.561,29.096-51.311,63.963-51.311
		c12.897,0,25.8,3.286,25.8,3.286l-8.239,27.99c0,0-6.859-1.64-13.187-1.64c-18.111,0-32.654,9.328-32.654,25.8
		c0,12.369,6.321,27.178,29.914,27.178h36.507v-26.361h34.599v26.361H336.8v28.552h-25.261v24.137
		c0,39.809-27.45,66.182-72.479,66.182c-43.912,0-72.463-25.55-72.463-58.215C166.597,236.841,179.777,216.812,201.18,209.674z
		 M239.349,285.16c22.771,0,37.592-12.096,37.592-36.517v-22.225h-38.698c-21.675,0-35.695,10.151-35.695,29.09
		C202.547,272.798,216.84,285.16,239.349,285.16z"/>
	<path fill="#F1F1F2" d="M355.178,287.362h20.313v-87.851H353.8v-26.072h56.559v113.923h20.034v26.061h-75.215V287.362z
		 M375.225,118.538h35.134v31.009h-35.134V118.538z"/>
</g>
<rect x="69" y="343" fill="#00ADEE" width="364" height="34"/>
</svg>
